<svg width="153" height="46" viewBox="0 0 153 46" fill="none" xmlns="http://www.w3.org/2000/svg">
<path d="M0 3.35015C0 1.49991 1.47781 0 3.30078 0H21.4551C23.278 0 24.7558 1.49992 24.7558 3.35015V35.1766C24.7558 37.0269 23.278 38.5268 21.4551 38.5268H3.30078C1.47781 38.5268 0 37.0269 0 35.1766V3.35015Z" fill="white"/>
<path d="M15.2581 39.6908L28.7059 45.714C30.3737 46.461 32.3224 45.6943 33.0584 44.0016L45.7182 14.8842C46.4542 13.1914 45.6988 11.2136 44.031 10.4666L37.8115 7.68098L32.3434 37.7785C31.8475 40.5078 29.2656 42.3124 26.5764 41.8091L15.2581 39.6908Z" fill="white"/>
<path d="M26.8757 40.1618L23.8236 39.5906C25.3624 38.7382 26.4062 37.0811 26.4062 35.1766V3.35014C26.4062 2.40509 26.1492 1.52097 25.7022 0.765869L33.7592 2.27379C35.552 2.60932 36.7373 4.35636 36.4067 6.17592L30.7203 37.4747C30.3898 39.2943 28.6685 40.4973 26.8757 40.1618Z" fill="white"/>
<path d="M70.4379 16.0098H62.084V22.5281H69.4198V25.0646H62.084V33.3525H59V13.4733H70.4379V16.0098Z" fill="white"/>
<path d="M73.7956 33.3525V12.5H76.7598V33.3525H73.7956Z" fill="white"/>
<path d="M89.0096 26.6868H86.7341C85.6162 26.6868 84.7679 26.9031 84.189 27.3357C83.6301 27.7683 83.3506 28.3188 83.3506 28.9874C83.3506 29.6756 83.5702 30.2163 84.0093 30.6095C84.4485 31.0028 85.0872 31.1994 85.9256 31.1994C86.8838 31.1994 87.6323 30.9438 88.1713 30.4326C88.7302 29.9017 89.0096 29.2135 89.0096 28.368V26.6868ZM81.3744 21.9677V19.1657C82.5521 18.4972 84.1091 18.1629 86.0454 18.1629C90.0177 18.1629 92.0039 20.0604 92.0039 23.8553V33.3525H89.0995V31.5829C88.321 32.8413 86.9536 33.4705 84.9974 33.4705C83.5602 33.4705 82.4024 33.0674 81.5241 32.2612C80.6658 31.4354 80.2366 30.3933 80.2366 29.1348C80.2366 27.6994 80.7856 26.5885 81.8834 25.802C82.9813 24.9958 84.5183 24.5927 86.4945 24.5927H89.0096V23.7374C89.0096 22.7149 88.7601 21.948 88.2611 21.4368C87.7621 20.9059 86.9337 20.6404 85.7759 20.6404C84.159 20.6404 82.6919 21.0829 81.3744 21.9677Z" fill="white"/>
<path d="M104.61 18.9003V21.5253C103.632 20.9551 102.374 20.6699 100.837 20.6699C100.139 20.6699 99.5799 20.8272 99.1607 21.1419C98.7615 21.4565 98.5619 21.8694 98.5619 22.3806C98.5619 22.5183 98.5718 22.6559 98.5918 22.7935C98.6317 22.9115 98.6916 23.0393 98.7715 23.177C98.8513 23.2949 98.9212 23.4031 98.981 23.5014C99.0609 23.5801 99.1807 23.6685 99.3404 23.7669C99.5 23.8652 99.6198 23.9537 99.6997 24.0323C99.7995 24.0913 99.9492 24.1699 100.149 24.2683C100.368 24.3666 100.528 24.4452 100.628 24.5042C100.728 24.5435 100.897 24.6222 101.137 24.7402C101.396 24.8385 101.576 24.9073 101.676 24.9466C102.854 25.4579 103.772 26.0379 104.431 26.6868C105.109 27.316 105.449 28.1615 105.449 29.2233C105.449 30.5604 104.969 31.6124 104.011 32.3792C103.053 33.1264 101.756 33.5 100.119 33.5C98.3223 33.5 96.8252 33.2051 95.6275 32.6152V29.8722C97.0248 30.7177 98.472 31.1404 99.9691 31.1404C100.748 31.1404 101.346 30.9831 101.766 30.6685C102.205 30.3539 102.424 29.941 102.424 29.4298C102.424 28.9972 102.255 28.6138 101.915 28.2795C101.576 27.9256 101.227 27.6699 100.867 27.5126C100.528 27.3357 99.9392 27.0702 99.1008 26.7163C96.7254 25.7528 95.5377 24.3371 95.5377 22.4691C95.5377 21.1517 96.0367 20.1194 97.0348 19.3722C98.0329 18.625 99.2805 18.2514 100.778 18.2514C102.414 18.2514 103.692 18.4677 104.61 18.9003Z" fill="white"/>
<path d="M111.435 12.5V20.9649C112.294 19.1166 113.861 18.1924 116.136 18.1924C117.613 18.1924 118.801 18.6447 119.699 19.5492C120.598 20.4537 121.047 21.7121 121.047 23.3244V33.3525H118.112V23.9143C118.112 22.8919 117.843 22.1053 117.304 21.5548C116.785 20.9846 116.096 20.6994 115.238 20.6994C114.24 20.6994 113.352 21.073 112.573 21.8202C111.815 22.5674 111.435 23.7079 111.435 25.2416V33.3525H108.501V12.5H111.435Z" fill="white"/>
<path d="M134.424 24.7992V24.2683C134.384 23.1475 134.075 22.2626 133.496 21.6138C132.917 20.9452 132.089 20.611 131.011 20.611C130.013 20.611 129.154 20.9747 128.436 21.7022C127.717 22.4101 127.268 23.4424 127.088 24.7992H134.424ZM136.311 29.9607V32.5562C135.193 33.1854 133.716 33.5 131.879 33.5C129.524 33.5 127.647 32.802 126.25 31.4059C124.853 30.0098 124.154 28.1812 124.154 25.9199C124.154 23.5211 124.793 21.6433 126.07 20.2865C127.348 18.9101 128.975 18.2219 130.951 18.2219C132.887 18.2219 134.424 18.8216 135.562 20.0211C136.7 21.2008 137.269 22.9115 137.269 25.1531C137.269 25.7626 137.209 26.4017 137.089 27.0702H127.118C127.318 28.368 127.877 29.361 128.795 30.0492C129.713 30.7374 130.871 31.0815 132.268 31.0815C133.885 31.0815 135.233 30.7079 136.311 29.9607Z" fill="white"/>
<path d="M150.156 24.7992V24.2683C150.116 23.1475 149.806 22.2626 149.227 21.6138C148.648 20.9452 147.82 20.611 146.742 20.611C145.744 20.611 144.886 20.9747 144.167 21.7022C143.448 22.4101 142.999 23.4424 142.82 24.7992H150.156ZM152.042 29.9607V32.5562C150.924 33.1854 149.447 33.5 147.61 33.5C145.255 33.5 143.379 32.802 141.981 31.4059C140.584 30.0098 139.885 28.1812 139.885 25.9199C139.885 23.5211 140.524 21.6433 141.802 20.2865C143.079 18.9101 144.706 18.2219 146.682 18.2219C148.618 18.2219 150.156 18.8216 151.293 20.0211C152.431 21.2008 153 22.9115 153 25.1531C153 25.7626 152.94 26.4017 152.82 27.0702H142.85C143.049 28.368 143.608 29.361 144.526 30.0492C145.445 30.7374 146.602 31.0815 148 31.0815C149.617 31.0815 150.964 30.7079 152.042 29.9607Z" fill="white"/>
</svg>
