<svg width="172" height="186" viewBox="0 0 172 186" fill="none" xmlns="http://www.w3.org/2000/svg">
<path d="M138.82 183H10.5574L3.01247 68.5504C2.96025 67.761 3.07242 66.9693 3.3419 66.2253C3.61138 65.4813 4.03231 64.8012 4.57816 64.2277C5.12402 63.6543 5.78294 63.2001 6.51336 62.8937C7.24379 62.5873 8.02987 62.4353 8.82203 62.4475H36.9645C38.2646 62.4416 39.5483 62.7381 40.7138 63.3135C41.8793 63.889 42.8946 64.7275 43.6794 65.7627L52.8842 77.5165H138.82V92.5856" stroke="#ADADAD" stroke-width="6" stroke-linecap="round" stroke-linejoin="round"/>
<path d="M159.946 131.765L166.284 107.655H31.3058L10.5573 183H138.141C140.505 182.994 142.801 182.207 144.67 180.763C146.54 179.318 147.879 177.297 148.478 175.013L154.212 153.314" stroke="#ADADAD" stroke-width="6" stroke-linecap="round" stroke-linejoin="round"/>
<path d="M86.0062 160.396C88.0128 158.409 90.7247 157.293 93.5511 157.293C96.3775 157.293 99.0893 158.409 101.096 160.396V160.396" stroke="#ADADAD" stroke-width="6" stroke-linecap="round" stroke-linejoin="round"/>
<path d="M63.3715 137.793H70.9164" stroke="#ADADAD" stroke-width="6" stroke-linecap="round" stroke-linejoin="round"/>
<path d="M116.186 137.793H123.731" stroke="#ADADAD" stroke-width="6" stroke-linecap="round" stroke-linejoin="round"/>
<path d="M117.091 3C99.2098 5.93847 86.0062 16.2608 86.0062 28.5421C86.1249 33.3159 88.0058 37.8776 91.2876 41.3508L86.0062 62.4475L107.585 51.6731C113.999 53.8452 120.73 54.94 127.503 54.9129C150.138 54.9129 169 43.0837 169 28.5421C169 16.4868 156.249 6.3152 138.82 3.15069" stroke="#ADADAD" stroke-width="6" stroke-linecap="round" stroke-linejoin="round"/>
<path d="M121.844 22.8912L133.162 34.193" stroke="#ADADAD" stroke-width="6" stroke-linecap="round" stroke-linejoin="round"/>
<path d="M133.162 22.8912L121.844 34.193" stroke="#ADADAD" stroke-width="6" stroke-linecap="round" stroke-linejoin="round"/>
</svg>
